<svg xmlns="http://www.w3.org/2000/svg" viewBox="0 0 1280 470.73"><defs><style>.cls-1{fill:#7ebcb9;}.cls-2,.cls-4{fill:#fff;}.cls-2,.cls-3{opacity:0.6;}</style></defs><title>background-indexRecurso 1</title><g id="Capa_2" data-name="Capa 2"><g id="Capa_1-2" data-name="Capa 1"><rect class="cls-1" width="1280" height="470"/><path class="cls-2" d="M293.92,208.57c-17.15-.12-34.81,10.45-42.56,18.42-15.56,15.18-22.72,29.47-29.82,44.89-4.16-15.73-11.09-36.93-13.25-42.66-4.25-11.26-17-45.74-21-46.15-6.08-.64-16.74,3.44-22.12,5.19A143.38,143.38,0,0,0,134.57,202c-18.28,11.2-27.3,29.68-27.35,50.32-36.49,8-67.42,36.18-76.11,75.38-4.1,18.53-15.55,74.21-12.64,77.78,18.36,22.59,65.39,15.81,86.45,11.17,16.63-3.67,53.79-25.92,59.31-50,2.3-10.09,2-18,1.83-26.73-1,1.29-6.16,36.23-59.9,54-17.25,5.71-29.79,6.17-46.76-1.69-1.28-.59-9.8-83.67,32.44-111.26,25.81-16.87,44.78-10.29,46.28-9.29,1.75,1.17-7.1-9.48-10.83-19.06-2.47-12.55-1.92-23.29,9-30.12a115.09,115.09,0,0,1,21.83-10.08c2.74-1,9.17-4.18,13.24-4.38.58,0,4.89,6.63,5.46,7.64,13.38,23.87,28.5,58.36,24.78,86.69a9.35,9.35,0,0,0,0,1.18c-6.9,8.62-12,20.87-1.78,28.29a14.64,14.64,0,0,0,5.57,2.61c-7.85,7.82-13.88,19.86-15.88,24.18l-10.64,29.13c-17.62,48.82-32.67,71.18-45,71.1-3.22,0-4.67-1.64-4.94-4.32.14-6.95-3.48-13.93-12.05-14-7.5-.06-12.9,5.79-13.58,12.74-.93,9.62,7,16.63,20.9,16.72,31.36.22,56.18-34.38,74.84-74.63,14.25-30.87,30.48-76.63,38.42-97.49a67.92,67.92,0,0,1,32.3-3.73c8.95,1.06.39-11.53-4.92-12.16a86.82,86.82,0,0,0-22.61.21c10.49-28,22.65-63.4,42.63-63.27,7,0,8.62,5.14,8.9,7.82.4,6.95,3.09,12.32,13.28,12.39,6.43.05,12.84-5.26,13.57-12.74C321.39,218.38,313.75,208.7,293.92,208.57Z"/><path class="cls-2" d="M147.91,323.88a23.12,23.12,0,0,0-5.51-22.34c-5-5.24-12.32-7.55-20.51-6.51a20.56,20.56,0,0,0-15.47,11.06c-2.76,5.81-1.85,12.16,2.57,17.88,7.51,9.71,14.82,8.88,18.29,7.66a5.33,5.33,0,0,1-1.25,1.86c-1.09,1.06-3.17,2.21-4,2a36.11,36.11,0,0,1-3.84-2.09c-3.52-2.07-5.94-3.44-7.39-3.65-2.74-.38-6,.45-6.68,3.18-.48,1.89,1.12,3.95,2.87,4.77a2.85,2.85,0,0,0,3.38-.33h0c.58,0,2.06,1,3.12,2.27a22.41,22.41,0,0,0-10,7.45h-.08l-.2,0c-.45.83-.87,1.67-1.34,2.48l.15,0a19,19,0,0,0-1.81,6.87,15.28,15.28,0,0,0-2.34,0,23,23,0,0,0-5.8,1.74c-1.54.6-5.15,2-5.57,1.41-2-2.83-3.59-4.63-5.37-4.91a3,3,0,0,0-2.22.55c-1.65,1.18-1,3.81-.29,6.86a29.14,29.14,0,0,1,.74,3.78,5,5,0,0,0,2.33,3.83,3.52,3.52,0,0,0,2.89.41c.32-.1.73-.53,1.21-.69,2.21-.72,6.29-2.36,8.28-2.36h0c.54,0,1,.82,2.08,1.91a28.43,28.43,0,0,0,8.89,6.8,13,13,0,0,0,5.88,1.35c9.27,0,21.52-7.49,28.37-18.36,8.68-13.76,11.45-24.7,8.47-33.45A2.14,2.14,0,0,1,147.91,323.88Z"/><g class="cls-3"><path class="cls-4" d="M247,327A200.37,200.37,0,0,1,242.31,347q-2.84,9.89-6.63,19.52c-2.55,6.41-5.55,12.68-8.54,18.79a150.53,150.53,0,0,0-7.89,18.23c-1.06,3.06-1.94,6.19-2.72,9.35s-1.61,6.57-2.35,9.79-1.37,6.44-1.77,9.49a31,31,0,0,0-.19,8.38,10.76,10.76,0,0,0,2.42,5.66,13.88,13.88,0,0,0,5.18,3.67,29.56,29.56,0,0,0,7.63,2,64.4,64.4,0,0,0,8.81.52c6.07-.05,12.41-.28,18.8-1a161,161,0,0,0,19.11-3.46,122.81,122.81,0,0,0,18-5.72,107.63,107.63,0,0,0,16.6-8.88c5.53-3.54,11.46-7.52,17.8-11a145,145,0,0,1,19.69-9c3.34-1.35,6.81-2.38,10.23-3.51,3.48-1,6.94-2,10.47-2.73a159.47,159.47,0,0,1,21.29-3.36c7.12-.64,14.23-.88,21.28-.84s14,.43,20.89.88c3.45.23,6.87.49,10.28.76s6.75.53,10.28.89l5.23.5c1.74.19,3.49.43,5.24.65,3.5.39,7,1,10.51,1.59a199.79,199.79,0,0,1,20.79,5c6.78,2,13.29,4.29,19.66,6.4,12.74,4.28,25.41,7.94,38.43,11,6.5,1.51,13,2.93,19.7,4.33s13.27,2.79,19.88,4.1c13.22,2.63,26.4,5,39.52,6.61s26.16,2.32,38.9,1.22l4.77-.43c1.58-.17,3.14-.46,4.72-.68l2.35-.36,1.18-.17,1.16-.25,4.65-1c.77-.18,1.55-.3,2.31-.52l2.28-.65,4.56-1.3c1.5-.49,3-1.06,4.48-1.58l2.23-.79,1.12-.4,1.08-.47,4.31-1.89,2.16-.94,2-1.1,4.07-2.18c1.32-.77,2.54-1.65,3.82-2.46a65.92,65.92,0,0,0,13.52-11.92c4.06-4.62,7.83-10,12.05-15.6a113.26,113.26,0,0,1,14.58-16.46,55.08,55.08,0,0,1,4.27-3.67l2.2-1.77,1.1-.88,1.15-.79,4.62-3.14,1.16-.78,1.2-.69,2.4-1.36c1.6-.9,3.19-1.84,4.81-2.7l4.94-2.39c.82-.41,1.66-.77,2.5-1.11l2.53-1.06,2.54-1,2.58-.92c1.72-.58,3.42-1.27,5.17-1.77l5.25-1.54c3.53-.87,7-1.8,10.62-2.4s7.14-1.15,10.71-1.66c3.58-.32,7.17-.73,10.74-.84s7.15-.21,10.71-.26l5.33.13c1.78,0,3.55.13,5.31.24,7.08.36,14.07,1.17,21,2.1a399,399,0,0,1,40.91,8.18c26.82,6.77,52.87,15.3,78.7,24.08q19.38,6.62,38.6,13.39c12.92,4.53,25.81,9.29,38.54,14.24l19,7.4c3.16,1.24,6.26,2.38,9.39,3.56s6.23,2.26,9.29,3.2a93.21,93.21,0,0,0,18.21,4.27,75.16,75.16,0,0,0,9,.35c1.49.07,3-.07,4.53-.12.76,0,1.52-.06,2.28-.07s1.54-.13,2.31-.19a109.38,109.38,0,0,0,36.75-9.2A153.62,153.62,0,0,0,1226,405.87,225.92,225.92,0,0,0,1255,378.05,351,351,0,0,0,1280,346a324.75,324.75,0,0,1-21,35.19,231.86,231.86,0,0,1-26.5,31.89,157.37,157.37,0,0,1-33.56,25.72,125.23,125.23,0,0,1-40.82,14.66c-.92.14-1.82.31-2.75.43s-1.87.18-2.8.26a48.43,48.43,0,0,1-5.66.25,84.34,84.34,0,0,1-11.34-.83,121.7,121.7,0,0,1-21.43-5.08c-3.44-1.05-6.68-2.28-10-3.44s-6.51-2.42-9.68-3.67l-19-7.4c-12.62-4.91-25.23-9.57-38-14S1011.8,411,999,406.6c-25.64-8.73-51.33-17.11-77.26-23.65a378,378,0,0,0-39-7.83c-6.52-.86-13-1.63-19.55-1.95-1.63-.11-3.26-.2-4.88-.22l-4.86-.12c-3.23.05-6.47,0-9.68.23s-6.4.47-9.59.76c-3.15.45-6.33.8-9.43,1.46s-6.19,1.34-9.26,2.08l-4.54,1.34c-1.52.43-3,1-4.47,1.53l-2.22.79-2.18.91-2.17.9c-.73.3-1.45.6-2.15,1l-4.25,2c-1.38.73-2.71,1.54-4.07,2.29a79.07,79.07,0,0,0-14.89,10.73,95.9,95.9,0,0,0-12.39,14.05c-3.94,5.23-8,11-12.9,16.64-1.27,1.38-2.51,2.78-3.81,4.14l-4.15,3.9a25.43,25.43,0,0,1-2.18,1.83l-2.23,1.78c-.75.58-1.49,1.18-2.25,1.75l-2.36,1.56c-1.58,1-3.14,2.11-4.75,3.06l-4.91,2.64-2.47,1.31-2.51,1.11-5,2.2a141,141,0,0,1-42.22,9.87c-14.37,1.23-28.61.37-42.48-1.28s-27.48-4.16-40.92-6.84c-6.72-1.33-13.4-2.74-20.06-4.14s-13.4-2.86-20.14-4.43c-13.45-3.15-26.93-7.05-40-11.43-6.53-2.17-12.87-4.38-19.12-6.23a180,180,0,0,0-18.85-4.54c-3.21-.5-6.38-1.1-9.65-1.46-1.62-.2-3.24-.43-4.87-.61l-4.92-.47c-3.24-.34-6.69-.59-10.05-.86s-6.72-.53-10.05-.75c-6.67-.44-13.29-.76-19.85-.84s-13.05.19-19.46.77a139.76,139.76,0,0,0-19,3c-3.13.64-6.18,1.57-9.26,2.4-3,1-6.09,1.91-9.05,3.12a125.41,125.41,0,0,0-17.34,7.95c-5.57,3.07-10.95,6.67-16.86,10.46a124.87,124.87,0,0,1-19.34,10.3,140.61,140.61,0,0,1-20.78,6.62c-6.92,1.66-13.89,2.91-21,3.94a98.45,98.45,0,0,1-21.88,1.14,70.53,70.53,0,0,1-11.43-1.79,45.73,45.73,0,0,1-11.66-4.45,29.32,29.32,0,0,1-10.23-9.35l-.5-.75-.44-.8-.84-1.62c-.25-.55-.47-1.12-.69-1.68a15.65,15.65,0,0,1-.58-1.71l-.46-1.73c-.12-.57-.21-1.14-.3-1.71a28.28,28.28,0,0,1-.33-3.36,45.07,45.07,0,0,1,1.45-11.9c.87-3.62,1.95-7,3.06-10.31s2.25-6.49,3.44-9.76,2.59-6.64,4.12-9.85a160.94,160.94,0,0,1,10.44-18.18c3.67-5.73,7.21-11.4,10.4-17.32A223.15,223.15,0,0,0,247,327Z"/></g><g class="cls-3"><path class="cls-4" d="M7,291a204.45,204.45,0,0,1,.19-28.64A112.87,112.87,0,0,1,13.07,233a23.52,23.52,0,0,1,1.82-3.57c.36-.58.68-1.15,1.09-1.71l1.24-1.67c.41-.55.82-1.11,1.22-1.67s.89-1.12,1.33-1.67a31.33,31.33,0,0,1,2.89-3.27l1.58-1.58c.54-.52,1.18-1,1.77-1.49s1.19-1,1.84-1.43l2-1.3,1-.63L32,212.5l2.24-1.05A40.38,40.38,0,0,1,39,210a36.86,36.86,0,0,1,9.24-.73,73.36,73.36,0,0,1,7.91.84c2.39.36,4.58.71,6.4.88a11.23,11.23,0,0,0,3.62-.08,1.14,1.14,0,0,0,.3-.13s.19-.18.12-.11-.08.22,0,.08a5.59,5.59,0,0,0,0-1.23c-.1-1.36-.56-3.5-1-5.95a47.46,47.46,0,0,1-1-8.51,32.46,32.46,0,0,1,.32-4.87,30.19,30.19,0,0,1,1.17-4.93,28.3,28.3,0,0,1,2.1-4.78,22.85,22.85,0,0,1,3.36-4.55A27.27,27.27,0,0,1,79.9,170a55.68,55.68,0,0,1,7.78-2.93c4.95-1.51,9.59-2.54,14.23-3.58l13.74-3c9.1-1.93,18.13-3.89,27.14-6q6.75-1.56,13.49-3.19c4.51-1.07,8.86-2.25,13.91-3.32a58.74,58.74,0,0,1,8.16-1.15,38.81,38.81,0,0,1,9.09.49,43.45,43.45,0,0,1,16.24,6.7,57.27,57.27,0,0,1,12.16,11.2,81.28,81.28,0,0,1,8.7,13.09c1.22,2.28,2.34,4.59,3.37,7,.51,1.18,1,2.37,1.48,3.59s.93,2.48,1.35,3.87a79.86,79.86,0,0,1,3.09,15.41c.27,2.55.42,5.08.54,7.41.06,1.15.12,2.26.2,3.16,0,.44.09.85.13,1.1s.09.42,0,.12l-.11-.28-.09-.17-.15-.3-.19-.27a4.28,4.28,0,0,0-.26-.38c-.1-.13-.21-.24-.32-.36a4,4,0,0,0-.41-.42,8,8,0,0,0-1-.74,7.34,7.34,0,0,0-1.09-.54,10.86,10.86,0,0,0-1.11-.33,7.65,7.65,0,0,0-1.14-.1,4.61,4.61,0,0,0-1.11.07l-.26.06-.19,0-.38.1a2.46,2.46,0,0,0-.38.14l-.17.08-.11,0a2.75,2.75,0,0,0-.38.2l-.16.1-.07,0-.11.08c-.05.06,0,0,0,0l0,0a17.63,17.63,0,0,0,1.31-1.54c.56-.77,1.15-1.59,1.78-2.5,2.48-3.65,5.19-7.82,8.27-11.82,1.53-2,3.21-4,4.89-6,.85-1,1.67-2,2.61-3a20.12,20.12,0,0,1,3.06-2.6,61.61,61.61,0,0,1,7-4.2,49.35,49.35,0,0,1,7.51-3.16,52.85,52.85,0,0,1,15.54-2.64,62.18,62.18,0,0,1,14.88,1.68A77,77,0,0,1,306,186c-9.45-.49-18.79.37-26.93,3.16a43.18,43.18,0,0,0-11,5.67,36.46,36.46,0,0,0-4.59,3.8,44.17,44.17,0,0,0-4,4.4c-.32.37-.63.77-1,1.13s-.69.7-1,1.07c-.72.68-1.49,1.36-2.21,2.07a57.32,57.32,0,0,0-4,4.78c-2.6,3.39-5,7-7.73,11.08-.68,1-1.45,2.08-2.28,3.19a32.19,32.19,0,0,1-3.26,3.73l-.61.55c-.22.18-.38.34-.68.56l-.81.6-.42.29c-.15.1-.36.22-.54.32-.38.21-.77.41-1.16.6l-.29.14-.39.15-.79.27c-.26.08-.53.16-.8.22l-.4.1-.48.08a14.5,14.5,0,0,1-2,.14,11.79,11.79,0,0,1-4-.76,11.12,11.12,0,0,1-3.55-2.18c-.26-.24-.51-.48-.74-.72s-.39-.46-.58-.7-.38-.49-.54-.72l-.4-.66-.37-.67-.27-.57c-.17-.38-.34-.79-.44-1.09a18.23,18.23,0,0,1-.81-3.27c-.14-.9-.22-1.65-.29-2.37-.12-1.42-.18-2.63-.24-3.8-.13-2.33-.26-4.45-.47-6.53a62,62,0,0,0-2.39-11.95c-.24-.83-.59-1.75-.95-2.71s-.77-1.92-1.18-2.87c-.84-1.91-1.75-3.79-2.73-5.62-3.92-7.3-9-13.83-15-17.86a29.89,29.89,0,0,0-4.61-2.48,23.12,23.12,0,0,0-4.78-1.45,20.71,20.71,0,0,0-4.83-.24,39.07,39.07,0,0,0-5.65.82c-4.08.85-8.72,2.08-13.27,3.17s-9.13,2.19-13.7,3.24c-9.14,2.11-18.31,4.1-27.44,6l-13.58,2.91c-4.45,1-8.9,2-12.86,3.22-8.85,2.87-9.9,4.2-10.37,10.59a30.57,30.57,0,0,0,.65,5.35A78.12,78.12,0,0,1,84.5,208a22.75,22.75,0,0,1-.2,5.73,17.76,17.76,0,0,1-2.51,6.57,18.43,18.43,0,0,1-4.65,4.93,19,19,0,0,1-6,2.91A27.88,27.88,0,0,1,61,228.9c-2.82-.27-5.23-.69-7.44-1-4.4-.69-8-.93-10.63-.33-.67.12-1.26.43-1.9.59-.31.16-.61.31-.92.45l-.47.21-.45.3c-.3.2-.61.39-.92.57s-.6.49-.9.73-.62.45-.92.74l-.88.9a16,16,0,0,0-1.72,2,11.18,11.18,0,0,0-.84,1.06c-.26.4-.5.81-.75,1.21l-.72,1.22c-.23.42-.43.89-.67,1.31s-.48.86-.74,1.28-.57.81-.83,1.26c-.56.86-1.18,1.7-1.77,2.57s-1.13,1.8-1.7,2.71-1.15,1.83-1.65,2.81l-1.55,2.92c-2.1,3.93-3.93,8.09-5.75,12.32C13.27,273.18,10.16,282,7,291Z"/></g></g></g></svg>