<svg xmlns="http://www.w3.org/2000/svg" viewBox="0 0 1280 370"><defs><style>.cls-1{fill:#7ebcb9;}.cls-2{fill:#fff;opacity:0.6;}.cls-3{fill:#e173aa;}</style></defs><title>BackgroundRecurso 4</title><g id="Capa_2" data-name="Capa 2"><g id="Capa_1-2" data-name="Capa 1"><rect class="cls-1" width="1280" height="370"/><path class="cls-2" d="M914.86,83.62c20.65-.12,41.9,10.12,51.23,17.84,18.73,14.69,27.35,28.53,35.9,43.46,5-15.24,13.34-35.76,16-41.31,5.11-10.9,20.51-44.28,25.25-44.68,7.31-.62,20.15,3.34,26.62,5a195.32,195.32,0,0,1,36.87,13.27c22,10.83,32.86,28.72,32.92,48.71,43.93,7.79,81.16,35,91.62,73,4.94,17.94,18.71,71.85,15.22,75.3-22.11,21.88-78.72,15.31-104.07,10.81-20-3.54-64.75-25.09-71.39-48.42-2.78-9.77-2.43-17.38-2.21-25.88,1.21,1.25,7.42,35.08,72.11,52.32,20.77,5.53,35.86,6,56.29-1.63,1.53-.57,11.79-81-39.05-107.72-31.07-16.33-53.91-10-55.71-9-2.11,1.13,8.54-9.18,13-18.45,3-12.15,2.31-22.55-10.84-29.16-8.15-4.09-17.32-7.16-26.28-9.76-3.29-1-11-4-15.94-4.24-.7,0-5.88,6.41-6.57,7.39C1039.7,113.6,1021.5,147,1026,174.41a6.37,6.37,0,0,1,0,1.15c8.3,8.34,14.45,20.2,2.15,27.39a20.05,20.05,0,0,1-6.71,2.52c9.45,7.57,16.71,19.23,19.12,23.4l12.8,28.21c21.21,47.26,39.33,68.91,54.17,68.83,3.87,0,5.62-1.59,6-4.18-.17-6.73,4.18-13.48,14.5-13.54,9-.05,15.53,5.61,16.35,12.34,1.12,9.31-8.39,16.09-25.16,16.19-37.75.21-67.62-33.29-90.09-72.25-17.15-29.89-36.69-74.19-46.25-94.39a100.68,100.68,0,0,0-38.88-3.61c-10.77,1-.46-11.16,5.93-11.77a130.17,130.17,0,0,1,27.21.2c-12.62-27.15-27.26-61.38-51.32-61.25-8.39,0-10.37,5-10.7,7.57-.48,6.73-3.73,11.93-16,12-7.74,0-15.46-5.1-16.34-12.34C881.79,93.12,891,83.75,914.86,83.62Z"/><path class="cls-2" d="M1090.62,195.25c-2.78-7.45-.17-15.94,6.63-21.63,6.07-5.07,14.84-7.3,24.69-6.29,7.83.8,15.31,5.1,18.62,10.7s2.23,11.78-3.09,17.31c-9,9.41-17.83,8.6-22,7.42a5.29,5.29,0,0,0,1.51,1.8c1.32,1,3.82,2.14,4.76,1.92a47.29,47.29,0,0,0,4.61-2c4.25-2,7.16-3.33,8.9-3.53,3.3-.37,7.22.43,8,3.08.57,1.83-1.35,3.82-3.46,4.61a4.11,4.11,0,0,1-4.07-.31h-.06a8.38,8.38,0,0,0-3.75,2.21q8,2.67,12,7.21h.09l.25,0c.54.79,1,1.61,1.61,2.39h-.18a15.65,15.65,0,0,1,2.17,6.65,22.2,22.2,0,0,1,2.82,0,32.78,32.78,0,0,1,7,1.68c1.85.59,6.2,1.94,6.71,1.37,2.39-2.74,4.31-4.49,6.46-4.75a4.24,4.24,0,0,1,2.67.52c2,1.15,1.23,3.69.35,6.65a24.49,24.49,0,0,0-.89,3.66,4.81,4.81,0,0,1-2.81,3.71,5.2,5.2,0,0,1-3.47.39c-.39-.1-.89-.51-1.46-.66-2.66-.71-7.57-2.29-10-2.29h-.06c-.65,0-1.27.79-2.51,1.85a34,34,0,0,1-10.7,6.58,18.76,18.76,0,0,1-7.08,1.31c-11.16,0-25.9-7.25-34.15-17.78-10.45-13.32-13.78-23.9-10.19-32.38A1.75,1.75,0,0,0,1090.62,195.25Z"/><polygon class="cls-3" points="357.26 0 1044.23 370 0 370 0 0 357.26 0"/></g></g></svg>